# xmcd CD database file
#
# Track frame offsets:
#	150
#	14985
#	25912
#	39252
#	52745
#	65930
#	79660
#	93562
#	107157
#	119097
#	130227
#	138890
#	152490
#	165622
#	177987
#	188762
#	202790
#	214752
#	223792
#	239757
#	255512
#
# Disc length: 3618 seconds
#
# Revision: 18
# Processed by: cddbd v1.5.2PL0 Copyright (c) Steve Scherf et al.
# Submitted via: CDex 1.51
#
DISCID=2f0e2015
DTITLE=Cornelis Vreeswijk - Guldkorn från Mäster Cees memoarer Vol. 2
DYEAR=1996
DGENRE=Folk
TTITLE0=Personliga Person
TTITLE1=Getinghonung Provencale
TTITLE2=Saskia
TTITLE3=Om jag vore arbetslös
TTITLE4=Dekadans
TTITLE5=Den falska flickan
TTITLE6=Blues för Inga-Maj
TTITLE7=Grimasch om morgonen
TTITLE8=Ingrid dardels polska
TTITLE9=Vals i Valparaiso
TTITLE10=Dansen på Sunnanö
TTITLE11=Den glade bagarn i San Remo
TTITLE12=Hajar'u de då Jack?
TTITLE13=Morbror Frans
TTITLE14=Bibbis visa
TTITLE15=Telegram för en bombad by
TTITLE16=Balladen om flykten
TTITLE17=Jultomten är faktiskt död
TTITLE18=Polaren Per hos det sociala
TTITLE19=Epistel 68 "Movitz i afton står baln"
TTITLE20=Epistel 71 "Ulla min Ulla säg får jag dig bjuda"
EXTD=YEAR: 1996
EXTT0=
EXTT1=
EXTT2=
EXTT3=
EXTT4=
EXTT5=
EXTT6=
EXTT7=
EXTT8=
EXTT9=
EXTT10=
EXTT11=
EXTT12=
EXTT13=
EXTT14=
EXTT15=
EXTT16=
EXTT17=
EXTT18=
EXTT19=
EXTT20=
PLAYORDER=
